<svg width="140" height="140" viewBox="0 0 24 24" fill="none" xmlns="http://www.w3.org/2000/svg">
  <path d="M12 2C12 2 7 6 7 10C7 12.761 9.239 15 12 15C14.761 15 17 12.761 17 10C17 6 12 2 12 2Z" fill="url(#paint0_linear)"/>
  <path d="M12 22C8.13401 22 5 18.866 5 15C5 12.5 7 10.5 8.5 9.5C9 11 10.343 12 12 12C13.657 12 15 11 15.5 9.5C17 10.5 19 12.5 19 15C19 18.866 15.866 22 12 22Z" fill="url(#paint1_radial)"/>
  <defs>
    <linearGradient id="paint0_linear" x1="7" y1="2" x2="17" y2="15" gradientUnits="userSpaceOnUse">
      <stop stop-color="#60A5FA"/>
      <stop offset="1" stop-color="#3B82F6"/>
    </linearGradient>
    <radialGradient id="paint1_radial" cx="0" cy="0" r="1" gradientUnits="userSpaceOnUse" gradientTransform="translate(12 15) rotate(90) scale(7)">
      <stop stop-color="#93C5FD"/>
      <stop offset="1" stop-color="#1E3A8A"/>
    </radialGradient>
  </defs>
</svg>
